<?xml version="1.0" encoding="utf-8"?>
<!-- Generator: Adobe Illustrator 21.0.2, SVG Export Plug-In . SVG Version: 6.00 Build 0)  -->
<svg version="1.1" id="Capa_1" xmlns="http://www.w3.org/2000/svg" xmlns:xlink="http://www.w3.org/1999/xlink" x="0px" y="0px"
	 viewBox="0 0 512 512" style="enable-background:new 0 0 512 512;" xml:space="preserve">
<style type="text/css">
	.st0{fill:#FFFFFF;}
</style>
<g>
	<g>
		<polygon class="st0" points="304,264 235.4,264 192,376 230.9,376 208,456 320,344 264.8,344 		"/>
		<path class="st0" d="M441.4,187.4C426.6,148,388.5,120,344,120c-10.3,0-20.2,1.5-29.5,4.3C289.1,83.3,243.7,56,192,56
			c-78.5,0-142.3,62.8-144,140.8C19.3,213.5,0,244.5,0,280c0,53,43,96,96,96h60.8l12.8-32H96c-35.2,0-64-28.7-64-64
			c0-30.3,21.1-55.7,49.4-62.3C80.5,211.9,80,206,80,200c0-61.9,50.1-112,112-112c50.6,0,93.3,33.6,107.2,79.6
			c12.3-9.8,27.8-15.6,44.8-15.6c37.1,0,67.6,28,71.6,64h0.5c35.2,0,64,28.7,64,64c0,35.3-28.6,64-64,64h-48l-32,32h80
			c53,0,96-43.1,96-96C512,235.8,482.1,198.5,441.4,187.4z"/>
	</g>
</g>
<g>
	<path class="st0" d="M320,448c-8.8,0-16,7.1-16,16.2v31.7c0,8.9,7.1,16.2,16,16.2c8.8,0,16-7.1,16-16.2v-31.7
		C336,455.2,328.9,448,320,448z"/>
	<path class="st0" d="M192,448c-8.8,0-16,7.1-16,16.2v31.7c0,8.9,7.1,16.2,16,16.2c8.8,0,16-7.1,16-16.2v-31.7
		C208,455.2,200.9,448,192,448z"/>
	<path class="st0" d="M384,416c-8.8,0-16,7.1-16,16.2v31.7c0,8.9,7.1,16.2,16,16.2c8.8,0,16-7.1,16-16.2v-31.7
		C400,423.2,392.9,416,384,416z"/>
	<path class="st0" d="M256,416c-8.8,0-16,7.1-16,16.2v31.7c0,8.9,7.1,16.2,16,16.2c8.8,0,16-7.1,16-16.2v-31.7
		C272,423.2,264.9,416,256,416z"/>
	<path class="st0" d="M128,416c-8.8,0-16,7.1-16,16.2v31.7c0,8.9,7.1,16.2,16,16.2c8.8,0,16-7.1,16-16.2v-31.7
		C144,423.2,136.9,416,128,416z"/>
</g>
</svg>
